inDegrees=yes
DataType=double
version=3
OpenSimVersion=4.5-2024-07-22-fc2981e9e
endheader
time	pelvis_tx	pelvis_ty	pelvis_tz	pelvis_tilt	pelvis_list	pelvis_rotation	hip_flexion_r	hip_adduction_r	hip_rotation_r	knee_angle_r	ankle_angle_r	subtalar_angle_r	mtp_angle_r	hip_flexion_l	hip_adduction_l	hip_rotation_l	knee_angle_l	ankle_angle_l	subtalar_angle_l	mtp_angle_l	lumbar_extension	lumbar_bending	lumbar_rotation	ground_force_vx	ground_force_vy	ground_force_vz	ground_force_px	ground_force_py	ground_force_pz	ground_force_vx	ground_force_vy	ground_force_vz	ground_force_px	ground_force_py	ground_force_pz	ground_torque_x	ground_torque_y	ground_torque_z	ground_torque_x	ground_torque_y	ground_torque_z	ground_marker_px	ground_marker_py	ground_marker_pz	ground_marker_px	ground_marker_py	ground_marker_pz	ground_marker_px	ground_marker_py	ground_marker_pz	ground_marker_px	ground_marker_py	ground_marker_pz	ground_marker_px	ground_marker_py	ground_marker_pz	ground_marker_px	ground_marker_py	ground_marker_pz	ground_marker_px	ground_marker_py	ground_marker_pz	ground_marker_px	ground_marker_py	ground_marker_pz	ground_marker_px	ground_marker_py	ground_marker_pz	ground_marker_px	ground_marker_py	ground_marker_pz	ground_marker_px	ground_marker_py	ground_marker_pz	ground_marker_px	ground_marker_py	ground_marker_pz	ground_marker_px	ground_marker_py	ground_marker_pz	ground_marker_px	ground_marker_py	ground_marker_pz	ground_marker_px	ground_marker_py	ground_marker_pz	ground_marker_px	ground_marker_py	ground_marker_pz	ground_marker_px	ground_marker_py	ground_marker_pz	ground_marker_px	ground_marker_py	ground_marker_pz	ground_marker_px	ground_marker_py	ground_marker_pz	ground_marker_px	ground_marker_py	ground_marker_pz	ground_marker_px	ground_marker_py	ground_marker_pz	ground_marker_px	ground_marker_py	ground_marker_pz	ground_marker_px	ground_marker_py	ground_marker_pz	ground_marker_px	ground_marker_py	ground_marker_pz	ground_marker_px	ground_marker_py	ground_marker_pz	ground_marker_px	ground_marker_py	ground_marker_pz	ground_marker_px	ground_marker_py	ground_marker_pz	ground_marker_px	ground_marker_py	ground_marker_pz	ground_marker_px	ground_marker_py	ground_marker_pz	ground_marker_px	ground_marker_py	ground_marker_pz	ground_marker_px	ground_marker_py	ground_marker_pz	ground_marker_px	ground_marker_py	ground_marker_pz	ground_marker_px	ground_marker_py	ground_marker_pz	ground_marker_px	ground_marker_py	ground_marker_pz	ground_marker_px	ground_marker_py	ground_marker_pz	ground_marker_px	ground_marker_py	ground_marker_pz	ground_marker_px	ground_marker_py	ground_marker_pz
0.13333328	0.6217426728752112	0.9731603595942342	-0.3018611194087979	-6.062071160636283	6.306173204860579	4.628753916680043	-2.069979303660059	-10.53086982214515	0.9137357209659791	-43.38944635466203	-23.20728251191191	2.642364779026239e-09	4.020584132219097e-09	27.35193420967329	10.15332535106782	10	-21.99588712859085	-1.159566130356201	-2.691508569119733e-09	1.166336110507059e-09	2.165161645691303	-10	1.66441868138399	-0.3194268311605193	0.1640647511661477	-0.08758211666656202	1.118079874964012	2.349115312761127e-09	-0.2591298811343675	-0.3194268311605193	0.1640647511661477	-0.08758211666656202	1.118079874964012	2.349115312761127e-09	-0.2591298811343675	1.060647842794319e-09	0.002184137799933455	-3.796133653951029e-09	1.060647842794319e-09	0.002184137799933455	-3.796133653951029e-09	0.5606603263330689	0.8089259100726807	-0.3014858433748491	0.5606603263330689	0.8089259100726807	-0.3014858433748491	0.5606603263330689	0.8089259100726807	-0.3014858433748491	0.5606603263330689	0.8089259100726807	-0.3014858433748491	0.5606603263330689	0.8089259100726807	-0.3014858433748491	0.5606603263330689	0.8089259100726807	-0.3014858433748491	0.5606603263330689	0.8089259100726807	-0.3014858433748491	0.5606603263330689	0.8089259100726807	-0.3014858433748491	0.5606603263330689	0.8089259100726807	-0.3014858433748491	0.5606603263330689	0.8089259100726807	-0.3014858433748491	0.5606603263330689	0.8089259100726807	-0.3014858433748491	0.5606603263330689	0.8089259100726807	-0.3014858433748491	0.5606603263330689	0.8089259100726807	-0.3014858433748491	0.5606603263330689	0.8089259100726807	-0.3014858433748491	0.5606603263330689	0.8089259100726807	-0.3014858433748491	0.5606603263330689	0.8089259100726807	-0.3014858433748491	0.5606603263330689	0.8089259100726807	-0.3014858433748491	0.5606603263330689	0.8089259100726807	-0.3014858433748491	0.5606603263330689	0.8089259100726807	-0.3014858433748491	0.5606603263330689	0.8089259100726807	-0.3014858433748491	0.5606603263330689	0.8089259100726807	-0.3014858433748491	0.5606603263330689	0.8089259100726807	-0.3014858433748491	0.5606603263330689	0.8089259100726807	-0.3014858433748491	0.5606603263330689	0.8089259100726807	-0.3014858433748491	0.5606603263330689	0.8089259100726807	-0.3014858433748491	0.5606603263330689	0.8089259100726807	-0.3014858433748491	0.5606603263330689	0.8089259100726807	-0.3014858433748491	0.5606603263330689	0.8089259100726807	-0.3014858433748491	0.5606603263330689	0.8089259100726807	-0.3014858433748491	0.5606603263330689	0.8089259100726807	-0.3014858433748491	0.5606603263330689	0.8089259100726807	-0.3014858433748491	0.5606603263330689	0.8089259100726807	-0.3014858433748491	0.5606603263330689	0.8089259100726807	-0.3014858433748491	0.5606603263330689	0.8089259100726807	-0.3014858433748491	0.5606603263330689	0.8089259100726807	-0.3014858433748491	0.5606603263330689	0.8089259100726807	-0.3014858433748491	0.5606603263330689	0.8089259100726807	-0.3014858433748491
0.1541666126086957	0.6490005514924573	0.9731603595942342	-0.3035908165118846	-5.857509091307968	6.174487106468872	5.060494111936719	1.390514616108986	-10.73149713137354	1.463679135268411	-49.49705726298988	-25.50076527515899	1.142513838884246e-09	3.824702216495994e-09	25.34644734525832	10.30462416733851	10	-21.80005799477535	0.3919909352856911	-1.769638332296136e-09	2.788018543281461e-10	1.688154049526069	-10	0.9815184342839154	-0.01027338710344665	-1.755210443265475	0.004691790011521889	1.117563043902359	2.369569327669605e-09	-0.2599890071152576	-0.01027338710344665	-1.755210443265475	0.004691790011521889	1.117563043902359	2.369569327669605e-09	-0.2599890071152576	-5.040646602552527e-10	0.00294506920346682	-3.03010029544952e-09	-5.040646602552527e-10	0.00294506920346682	-3.03010029544952e-09	0.58562782080533	0.8105319233601891	-0.3044564831426608	0.58562782080533	0.8105319233601891	-0.3044564831426608	0.58562782080533	0.8105319233601891	-0.3044564831426608	0.58562782080533	0.8105319233601891	-0.3044564831426608	0.58562782080533	0.8105319233601891	-0.3044564831426608	0.58562782080533	0.8105319233601891	-0.3044564831426608	0.58562782080533	0.8105319233601891	-0.3044564831426608	0.58562782080533	0.8105319233601891	-0.3044564831426608	0.58562782080533	0.8105319233601891	-0.3044564831426608	0.58562782080533	0.8105319233601891	-0.3044564831426608	0.58562782080533	0.8105319233601891	-0.3044564831426608	0.58562782080533	0.8105319233601891	-0.3044564831426608	0.58562782080533	0.8105319233601891	-0.3044564831426608	0.58562782080533	0.8105319233601891	-0.3044564831426608	0.58562782080533	0.8105319233601891	-0.3044564831426608	0.58562782080533	0.8105319233601891	-0.3044564831426608	0.58562782080533	0.8105319233601891	-0.3044564831426608	0.58562782080533	0.8105319233601891	-0.3044564831426608	0.58562782080533	0.8105319233601891	-0.3044564831426608	0.58562782080533	0.8105319233601891	-0.3044564831426608	0.58562782080533	0.8105319233601891	-0.3044564831426608	0.58562782080533	0.8105319233601891	-0.3044564831426608	0.58562782080533	0.8105319233601891	-0.3044564831426608	0.58562782080533	0.8105319233601891	-0.3044564831426608	0.58562782080533	0.8105319233601891	-0.3044564831426608	0.58562782080533	0.8105319233601891	-0.3044564831426608	0.58562782080533	0.8105319233601891	-0.3044564831426608	0.58562782080533	0.8105319233601891	-0.3044564831426608	0.58562782080533	0.8105319233601891	-0.3044564831426608	0.58562782080533	0.8105319233601891	-0.3044564831426608	0.58562782080533	0.8105319233601891	-0.3044564831426608	0.58562782080533	0.8105319233601891	-0.3044564831426608	0.58562782080533	0.8105319233601891	-0.3044564831426608	0.58562782080533	0.8105319233601891	-0.3044564831426608	0.58562782080533	0.8105319233601891	-0.3044564831426608	0.58562782080533	0.8105319233601891	-0.3044564831426608	0.58562782080533	0.8105319233601891	-0.3044564831426608
0.1749999452173913	0.6722424501672174	0.9731603595942342	-0.3050185137656214	-5.819718695719689	5.648962174231177	5.261904669096113	5.112418108209524	-10.3499100683066	2.750593543514668	-54.54217892321814	-24.55743350581893	1.87250865378103e-09	2.957532461693293e-09	23.3183742475391	9.821469620059723	10	-21.04113269695091	1.423882357096766	1.276989884463831e-09	-6.13683718248576e-10	1.393001624573081	-9.816369038544742	0.5315274446238613	0.08068329454709651	-1.622425922482091	-0.01954779633462531	1.120110569616379	3.153833381428148e-09	-0.260545463902198	0.08068329454709651	-1.622425922482091	-0.01954779633462531	1.120110569616379	3.153833381428148e-09	-0.260545463902198	-3.885470697917239e-10	-0.001160139567231141	-5.437328340379262e-10	-3.885470697917239e-10	-0.001160139567231141	-5.437328340379262e-10	0.6075459938395484	0.8112405019456962	-0.3060681167739646	0.6075459938395484	0.8112405019456962	-0.3060681167739646	0.6075459938395484	0.8112405019456962	-0.3060681167739646	0.6075459938395484	0.8112405019456962	-0.3060681167739646	0.6075459938395484	0.8112405019456962	-0.3060681167739646	0.6075459938395484	0.8112405019456962	-0.3060681167739646	0.6075459938395484	0.8112405019456962	-0.3060681167739646	0.6075459938395484	0.8112405019456962	-0.3060681167739646	0.6075459938395484	0.8112405019456962	-0.3060681167739646	0.6075459938395484	0.8112405019456962	-0.3060681167739646	0.6075459938395484	0.8112405019456962	-0.3060681167739646	0.6075459938395484	0.8112405019456962	-0.3060681167739646	0.6075459938395484	0.8112405019456962	-0.3060681167739646	0.6075459938395484	0.8112405019456962	-0.3060681167739646	0.6075459938395484	0.8112405019456962	-0.3060681167739646	0.6075459938395484	0.8112405019456962	-0.3060681167739646	0.6075459938395484	0.8112405019456962	-0.3060681167739646	0.6075459938395484	0.8112405019456962	-0.3060681167739646	0.6075459938395484	0.8112405019456962	-0.3060681167739646	0.6075459938395484	0.8112405019456962	-0.3060681167739646	0.6075459938395484	0.8112405019456962	-0.3060681167739646	0.6075459938395484	0.8112405019456962	-0.3060681167739646	0.6075459938395484	0.8112405019456962	-0.3060681167739646	0.6075459938395484	0.8112405019456962	-0.3060681167739646	0.6075459938395484	0.8112405019456962	-0.3060681167739646	0.6075459938395484	0.8112405019456962	-0.3060681167739646	0.6075459938395484	0.8112405019456962	-0.3060681167739646	0.6075459938395484	0.8112405019456962	-0.3060681167739646	0.6075459938395484	0.8112405019456962	-0.3060681167739646	0.6075459938395484	0.8112405019456962	-0.3060681167739646	0.6075459938395484	0.8112405019456962	-0.3060681167739646	0.6075459938395484	0.8112405019456962	-0.3060681167739646	0.6075459938395484	0.8112405019456962	-0.3060681167739646	0.6075459938395484	0.8112405019456962	-0.3060681167739646	0.6075459938395484	0.8112405019456962	-0.3060681167739646	0.6075459938395484	0.8112405019456962	-0.3060681167739646	0.6075459938395484	0.8112405019456962	-0.3060681167739646
0.1958332778260869	0.6861683720258991	0.9731603595942342	-0.3074227810212993	-5.89840652956093	4.90226086328496	5.245982940019697	8.999502517121346	-9.647564652199401	4.023554938870495	-58.44643295400393	-21.17784725901031	2.941932293549321e-09	1.246768696059541e-09	21.30376001659987	8.996495560364764	10	-19.91806917123946	2.14274705055147	2.552634401744202e-09	-2.012576686730324e-10	1.042261914999293	-9.795014584045198	-0.00229331686402981	0.0798843696975534	-1.11692618296158	-0.03395419242499662	1.125798853462713	1.835069219403259e-09	-0.2612728437571039	0.0798843696975534	-1.11692618296158	-0.03395419242499662	1.125798853462713	1.835069219403259e-09	-0.2612728437571039	-1.949993356115649e-10	-0.004722266733957147	1.734260438198467e-09	-1.949993356115649e-10	-0.004722266733957147	1.734260438198467e-09	0.6276463685987105	0.8138488174425969	-0.3085590739383698	0.6276463685987105	0.8138488174425969	-0.3085590739383698	0.6276463685987105	0.8138488174425969	-0.3085590739383698	0.6276463685987105	0.8138488174425969	-0.3085590739383698	0.6276463685987105	0.8138488174425969	-0.3085590739383698	0.6276463685987105	0.8138488174425969	-0.3085590739383698	0.6276463685987105	0.8138488174425969	-0.3085590739383698	0.6276463685987105	0.8138488174425969	-0.3085590739383698	0.6276463685987105	0.8138488174425969	-0.3085590739383698	0.6276463685987105	0.8138488174425969	-0.3085590739383698	0.6276463685987105	0.8138488174425969	-0.3085590739383698	0.6276463685987105	0.8138488174425969	-0.3085590739383698	0.6276463685987105	0.8138488174425969	-0.3085590739383698	0.6276463685987105	0.8138488174425969	-0.3085590739383698	0.6276463685987105	0.8138488174425969	-0.3085590739383698	0.6276463685987105	0.8138488174425969	-0.3085590739383698	0.6276463685987105	0.8138488174425969	-0.3085590739383698	0.6276463685987105	0.8138488174425969	-0.3085590739383698	0.6276463685987105	0.8138488174425969	-0.3085590739383698	0.6276463685987105	0.8138488174425969	-0.3085590739383698	0.6276463685987105	0.8138488174425969	-0.3085590739383698	0.6276463685987105	0.8138488174425969	-0.3085590739383698	0.6276463685987105	0.8138488174425969	-0.3085590739383698	0.6276463685987105	0.8138488174425969	-0.3085590739383698	0.6276463685987105	0.8138488174425969	-0.3085590739383698	0.6276463685987105	0.8138488174425969	-0.3085590739383698	0.6276463685987105	0.8138488174425969	-0.3085590739383698	0.6276463685987105	0.8138488174425969	-0.3085590739383698	0.6276463685987105	0.8138488174425969	-0.3085590739383698	0.6276463685987105	0.8138488174425969	-0.3085590739383698	0.6276463685987105	0.8138488174425969	-0.3085590739383698	0.6276463685987105	0.8138488174425969	-0.3085590739383698	0.6276463685987105	0.8138488174425969	-0.3085590739383698	0.6276463685987105	0.8138488174425969	-0.3085590739383698	0.6276463685987105	0.8138488174425969	-0.3085590739383698	0.6276463685987105	0.8138488174425969	-0.3085590739383698	0.6276463685987105	0.8138488174425969	-0.3085590739383698
